<?xml version="1.0" encoding="UTF-8" standalone="no"?>
<!-- Generator: Adobe Illustrator 22.0.0, SVG Export Plug-In . SVG Version: 6.00 Build 0)  -->

<svg
   xmlns:dc="http://purl.org/dc/elements/1.1/"
   xmlns:cc="http://creativecommons.org/ns#"
   xmlns:rdf="http://www.w3.org/1999/02/22-rdf-syntax-ns#"
   xmlns:svg="http://www.w3.org/2000/svg"
   xmlns="http://www.w3.org/2000/svg"
   xmlns:xlink="http://www.w3.org/1999/xlink"
   xmlns:sodipodi="http://sodipodi.sourceforge.net/DTD/sodipodi-0.dtd"
   xmlns:inkscape="http://www.inkscape.org/namespaces/inkscape"
   version="1.1"
   x="0px"
   y="0px"
   viewBox="0 0 3312.7 1690.1"
   style="enable-background:new 0 0 3312.7 1690.1;"
   xml:space="preserve"
   id="svg192"
   sodipodi:docname="CAR- OBJECT-01.svg"
   inkscape:version="0.92.2 5c3e80d, 2017-08-06"><metadata
     id="metadata198"><rdf:RDF><cc:Work
         rdf:about=""><dc:format>image/svg+xml</dc:format><dc:type
           rdf:resource="http://purl.org/dc/dcmitype/StillImage" /></cc:Work></rdf:RDF></metadata><defs
     id="defs196" /><sodipodi:namedview
     pagecolor="#ffffff"
     bordercolor="#666666"
     borderopacity="1"
     objecttolerance="10"
     gridtolerance="10"
     guidetolerance="10"
     inkscape:pageopacity="0"
     inkscape:pageshadow="2"
     inkscape:window-width="760"
     inkscape:window-height="529"
     id="namedview194"
     showgrid="false"
     inkscape:zoom="0.18"
     inkscape:cx="872.75006"
     inkscape:cy="845.04999"
     inkscape:window-x="0"
     inkscape:window-y="0"
     inkscape:window-maximized="0"
     inkscape:current-layer="Layer_1" /><style
     type="text/css"
     id="style2">
	.st0{display:none;}
	.st1{fill:#0F1820;}
	.st2{fill:#5D616A;}
	.st3{fill:#F00000;}
	.st4{fill:#909093;}
	.st5{fill:#FFFFFF;}
	.st6{fill:#3C4047;}
	.st7{fill:#50545D;}
	.st8{fill:#111723;}
	.st9{fill:#2B2D33;}
	.st10{fill:#F0DE00;}
	.st11{fill:#B2B2B4;}
	.st12{fill:#9FB19E;}
	.st13{fill:#538844;}
	.st14{fill:#3E404D;}
	.st15{fill:#5D616A;stroke:#3E404D;stroke-width:2;stroke-miterlimit:10;}
</style><g
     id="shadow"><g
       id="g9"><path
         d="M344,1224.5c0,0,30.4,17.8,74.4,0s0,0,0,0l45.8,71.1c0,0-58.5,7.8-58.5,82.4c0,74.6,105,175.3,245.3,175.3    s241.6-91,280.8-130.3h1248.5c0,0,85.9,130.3,225.1,130.3c139.2,0,253.2-84.4,290.3-121.4c0,0,245.8,0,275.5,0    c29.6,0,192.5-208.6,192.5-332.4l-149.1-25.7l-313-265.4l-469.1-103.7l-923,140.7l-377.7-55.3l-277.9-22.7l-153,22.7l-157,256.7    V1224.5"
         id="path7" /></g><g
       id="g13"><path
         class="st1"
         d="M1313.5,308.3c0,0-268.5,240.9-296.2,268.5s-86.9,55.3-86.9,55.3l61.2,32.2l71.1-14l110.9-110.9l159.6-152.2    l43.4-39.5l-15.8-47.4L1313.5,308.3z"
         id="path11" /></g></g><g
     id="tail_lights"><g
       id="g18"><path
         class="st3"
         d="M2958.4,626.2h-55.3l-83.7,188.1l58,94.3c0,0,92-8.1,113-8.1C2990.5,900.5,2980.1,647.9,2958.4,626.2z"
         id="path16" /></g><g
       id="g22"><path
         class="st4"
         d="M2976.3,706.2c0,0-13.9,0-23.6,0c-9.6,0-9.6,11.8-9.6,21.5c0,9.6-8.9,19.2,37.4,19.2L2976.3,706.2z"
         id="path20" /></g><g
       id="g26"><path
         class="st4"
         d="M2982.2,767.4c0,0-27.2,0-39.8,0s-22.3,11.4-22.3,21c0,9.6,5.9,20,19.3,20s45.9,0,45.9,0L2982.2,767.4z"
         id="path24" /></g><g
       id="g30"><path
         class="st4"
         d="M2987,834.2c0,0-39.5,0-51.3,0s-19.3,13.3-19.3,21.5s8.9,21.5,22.2,21.5s50.7,0,50.7,0L2987,834.2z"
         id="path28" /></g></g><g
     id="Layer_1"><g
       id="g37"><path
         class="st5"
         d="M952.7,626.2l76.5,5.9l-76.5,42.9L926,695.8l-171.8,14.8l-303.6,62.2L421,833.5l-39.5,130.3H209.7    c0-82.9,17.3-180.7,57.3-217.7c40-37,125.9-87.4,281.4-105.1C703.9,623.2,952.7,626.2,952.7,626.2"
         id="path33" /><path
         class="st6"
         d="M381.5,966.8H209.7c-1.6,0-3-1.3-3-3c0-76.6,15.2-180.1,58.2-219.9c33.9-31.3,115.6-86.8,283.1-105.9    c153.9-17.6,402.2-14.8,404.7-14.8c0.1,0,0.1,0,0.2,0l76.5,5.9c1.3,0.1,2.4,1,2.7,2.3s-0.3,2.6-1.4,3.2l-76.5,42.9l-26.3,20.5    c-0.5,0.3-1,0.6-1.6,0.6l-171.8,14.8l-301.8,61.9l-29,59.4l-39.3,129.9C384,965.9,382.8,966.8,381.5,966.8z M212.7,960.9h166.6    l38.9-128.2l29.8-61.2c0.4-0.8,1.2-1.4,2.1-1.6l303.6-62.2l171.3-14.8l26-20.2l68.4-38.4l-66.7-5.2c-6.1-0.1-251.4-2.6-403.8,14.8    C383,662.9,302.3,717.5,269,748.3C228,786.3,213.1,885.8,212.7,960.9z"
         id="path35" /></g><g
       id="g43"><path
         class="st5"
         d="M650.1,900.7c88.9,0,294.2,49.4,286.3,387c0,0-5.9,23.7,25.7,23.7s1101.8,0,1147.2,0    c25.7,0,25.7-21.7,25.7-45.4c0-23.7,9.9-381.1,294.2-381.1c125.4,0,198,88.6,233.9,164.1c20.1,42.2,28.7,80.2,28.7,96.5    c0,19.7,7.9,29.6,33.6,29.6c25.7,0,245.8,1,280.4-33.6c34.6-34.6,17.8-94.8,17.8-94.8l-8.9-8.9v-20.7h13c0,0,2.8-97.7-8-108.6    c-10.9-10.9-142.2,0-142.2,0s6.9-263.6,25.7-282.4c0,0,48.4,6.9,55.3,0c6.9-6.9-37.5-124.4-75-189.6    c-37.5-65.2-106.6-126.4-106.6-150.1s0-37.5,0-37.5s-1232.2,0-1265.7,0c-33.6,0-156,17.8-197.5,59.2l29.6,29.6    c0,0-304.1,284.3-314,294.2c-9.9,9.9-639.8,114.5-679.3,126.4c0,0,61.2,2,61.2,31.6c0,29.6-29.6,100.7-29.6,118.5    c0,17.8,0,55.3,0,55.3s-154,0-171.8,0v82.9c0,0-29.6,2-29.6,29.6c0,27.6-11.8,63.2,29.6,75c0,0,17.8,73.1,134.3,73.1    c17.8,0,27.6-17.8,27.6-39.5C371.6,1163.3,432.9,900.7,650.1,900.7z"
         id="path39" /><path
         class="st6"
         d="M2109.3,1314.3H962.1c-11.7,0-20.1-3.1-24.8-9.2c-6.2-7.9-3.8-17.7-3.7-18.1c3.1-135.7-28.1-238.4-92.9-304.7    c-69.4-71-156.4-78.7-190.6-78.7c-211.8,0-275.5,254-275.5,281.4c0,25.4-12.3,42.5-30.6,42.5c-107.5,0-133-62.5-136.6-73.6    c-34.7-10.7-32.7-38-31-62.2c0.4-5.3,0.8-10.4,0.8-15.2c0-24.8,21.8-30.8,29.6-32.2v-80.4c0-1.6,1.3-3,3-3h168.8v-52.3    c0-8.2,5.6-26.1,12.1-46.8c8.2-26,17.5-55.5,17.5-71.7c0-26.4-57.8-28.6-58.3-28.6c-1.5,0-2.7-1.1-2.8-2.6    c-0.2-1.4,0.7-2.8,2.1-3.2c17.4-5.2,143.4-27.4,289.2-53.1c169-29.8,379.3-66.8,389.1-72.8c9.2-9.2,281.7-264.1,311.5-292    l-27.5-27.5c-1.2-1.2-1.2-3,0-4.2c42-42,165.9-60.1,199.6-60.1h1265.7c1.6,0,3,1.3,3,3v37.5c0,11.3,19.1,34.3,41.3,60.9    c22,26.4,46.8,56.2,64.9,87.7c34.5,60,84.1,183.6,74.5,193.1c-7,7-42.8,2.9-56.1,1.1c-12.6,18.9-21.1,172.8-23.9,276    c28.1-2.3,130.4-9.6,141.2,1.1c11.2,11.2,9.3,94.2,8.9,110.8c0,1.6-1.4,2.9-3,2.9h-10v16.5l8,8c0.3,0.4,0.6,0.8,0.7,1.3    c0.7,2.5,16.9,62.3-18.5,97.7c-29.9,29.9-186.3,34.4-278.3,34.4c-0.7,0-1.4,0-2.1,0h-2.1c-25.6,0-36.5-9.7-36.5-32.6    c0-14.3-7.6-51.5-28.4-95.2c-28.8-60.7-97.2-162.4-231.3-162.4c-287.9,0-291.3,374.4-291.3,378.1    C2137.9,1289.7,2137.9,1314.3,2109.3,1314.3z M650.1,897.7c35,0,123.9,7.8,194.8,80.4c65.9,67.5,97.7,171.7,94.5,309.6    c-0.1,0.7-1.8,8.1,2.6,13.7c3.6,4.6,10.4,6.9,20.1,6.9h1147.2c21.6,0,22.7-16.1,22.7-42.5c0-3.8,3.4-384.1,297.2-384.1    c137.3,0,207.2,103.9,236.6,165.8c19,40,28.9,79.4,28.9,97.8c0,16.5,5.1,26.7,30.6,26.7h2.1c0.7,0,1.4,0,2.1,0    c151.2,0,253.7-12.2,274.1-32.7c30.9-30.9,18.9-84.3,17.2-91.1l-8.3-8.3c-0.6-0.6-0.9-1.3-0.9-2.1v-20.7c0-1.6,1.3-3,3-3h10.1    c1-37.5-0.1-96.5-7.2-103.5c-6.8-6.9-85.9-3.6-139.8,0.9c-0.9,0-1.7-0.2-2.3-0.8c-0.6-0.6-0.9-1.4-0.9-2.2    c0.7-27.1,7.5-265.4,26.5-284.4c0.6-0.6,1.5-1,2.5-0.8c22.5,3.2,49.1,4.4,52.8,0.8c3.2-8.9-36.4-118.2-75.5-186    c-17.9-31-42.6-60.7-64.3-86.9c-23.9-28.7-42.7-51.3-42.7-64.7V252H1511c-32.5,0-150.5,17-193.2,56.3l27.5,27.5    c0.6,0.6,0.9,1.3,0.9,2.1c0,0.8-0.3,1.6-0.9,2.1c-3,2.8-304.2,284.4-313.9,294.1c-5.4,5.4-119.9,26.3-392,74.2    c-116.7,20.5-227.9,40.1-271.3,49c19,3.1,46.1,11.3,46.1,32.7c0,17.1-9.4,47.1-17.7,73.5c-6.1,19.4-11.9,37.7-11.9,45v55.3    c0,1.6-1.3,3-3,3H212.7v80c0,1.6-1.2,2.8-2.8,3c-1.1,0.1-26.9,2.2-26.9,26.7c0,5.1-0.4,10.5-0.8,15.7    c-1.8,24.4-3.5,47.5,28.2,56.5c1,0.3,1.8,1.1,2.1,2.2c0.7,2.9,18.8,70.8,131.4,70.8c17,0,24.7-18.3,24.7-36.5    C368.7,1157,433.7,897.7,650.1,897.7z"
         id="path41" /></g><g
       id="g47"><path
         class="st6"
         d="M2663.4,1054.9l-0.5-11.8c2.1-0.1,208.4-8.3,351.3-20l1,11.8C2872,1046.6,2665.4,1054.8,2663.4,1054.9z"
         id="path45" /></g><g
       id="g51"><path
         class="st7"
         d="M2140.9,1189H932h-0.1c3.6,29.8,5.4,62.5,4.5,98.7c0,0-5.9,23.7,25.7,23.7c31.6,0,1101.8,0,1147.2,0    c25.7,0,25.7-21.7,25.7-45.4c0-6.2,0.7-35.8,7-75.8L2140.9,1189z"
         id="path49" /></g><g
       id="g55"><path
         class="st8"
         d="M2519.5,300.4c69.6,0,216.2,0,216.2,0s35.5,65.2,75.5,114c40,48.9,90.3,179.2,91.8,211.8H2444    c0,0-122.9-266.6-122.9-303.6c0-11.8-7.4-22.2,44.4-22.2C2417.3,300.4,2519.5,300.4,2519.5,300.4z"
         id="path53" /></g><g
       id="g59"><path
         class="st1"
         d="M1103.7,639.5c-24,37.4,29.6,45.9,80,45.9s457.6-4.4,545-8.9c87.4-4.4,472.4-1.5,496.1-37    c10.4-13.3,10.4-41.5,0-115.5c-10.4-74-19.3-198.4-57.8-213.3c-17.8,0-617.9,7.4-654.7,8.9c-36.9,1.5-142,48.9-193.8,100.7    C1266.6,472.2,1117.1,618.8,1103.7,639.5z"
         id="path57" /></g><g
       id="g63"><polygon
         class="st6"
         points="2099.4,311.5 2099.4,664.4 2135.3,661.2 2135.3,311.1   "
         id="polygon61" /></g><g
       id="g67"><path
         class="st6"
         d="M1212.3,525.9l13.4,14.4c0,0,5-1,11.7-2.2c11.4-2.1,27.8-5,32.7-5l-3,146.3c0,0-32.6-10.8-42.5-10.8    s-41,16.8-41,16.8s-76.2-2.4-80.9-17.4c-4.7-15-11-20.8,40.8-72.6S1212.3,525.9,1212.3,525.9z"
         id="path65" /></g><g
       id="g77"><g
         id="g71"><polygon
           class="st9"
           points="1101.1,662.6 1099.5,656.9 1195,629.6 1244.3,535 1249.6,537.7 1199.1,634.6    "
           id="polygon69" /></g><g
         id="g75"><polygon
           class="st9"
           points="1222.3,670.4 1194.7,633.9 1199.4,630.3 1227,666.9    "
           id="polygon73" /></g></g><g
       id="g81"><polygon
         class="st6"
         points="1665.2,317.1 1631.6,679.4 1777.6,676.5 1785.5,317.1   "
         id="polygon79" /></g><g
       id="g85"><path
         class="st6"
         d="M2834.1,1173.8l-11.8-1.4c0.2-1.9,23.5-195.7,23.5-244.1c0-21.8,4.9-36.4,14.4-43.4    c7.2-5.3,15.3-4.8,18.9-3.7l-3.5,11.3l1.7-5.7l-1.6,5.7c-0.2,0-4.5-1.2-8.7,2c-6.1,4.7-9.5,16.7-9.5,33.8    C2857.7,977.4,2835.1,1165.8,2834.1,1173.8z"
         id="path83" /></g><g
       id="g89"><path
         class="st6"
         d="M2329.6,902c0-2-2.2-205.9-29.4-324.4l-7.1-31.1C2269.5,442,2233.7,284,2192.3,284H1522    c-44.9,0-92.3,4.3-178.3,56.7l-6.2-10.1c88.6-54,137.8-58.4,184.4-58.4h670.3c47.1,0,77.5,117.8,112.3,271.7l7.1,31    c27.5,119.7,29.7,324.9,29.7,326.9L2329.6,902z"
         id="path87" /></g><g
       id="g93"><path
         class="st6"
         d="M1023.5,1189c-53.1-172.9-2.4-542-0.2-557.7l11.7,1.6c-0.5,3.8-52.5,385.6-0.2,556.1H1023.5z"
         id="path91" /></g><g
       id="g97"><path
         class="st6"
         d="M968.1,1086l-0.1-11.8c10.5-0.1,1048.3-12.7,1137.8-12.7v11.8C2016.3,1073.3,978.5,1085.9,968.1,1086z"
         id="path95" /></g><g
       id="g101"><polygon
         class="st6"
         points="1691.7,1189.1 1679.8,1188.9 1686.8,678.1 1698.6,678.1   "
         id="polygon99" /></g><g
       id="g105"><path
         class="st6"
         d="M1012.5,1271.1c-10.7,0-17.4-1-21.8-5.2c-2.6-2.6-4-6-4-10.3c-4.3-193.8-70.3-425-359.9-425    c-281.5,0-321.4,386.3-321.7,390.2l-11.8-1.1c0.4-4,41.2-401,333.5-401c314.9,0,368.1,273.6,371.7,436.7c0,0.7,0,1.6,0.4,2    c2.4,2.3,14.2,1.9,26.7,1.6c6.7-0.2,14.4-0.4,23.2-0.4h1019c0.8-37.7,10.9-244.5,130.8-365.5c59.5-60.1,137.1-90.6,230.5-90.6    c102.6,0,297.7,51.3,302.1,245.7l-11.8,0.3c-4.2-185.2-191.7-234.1-290.3-234.1c-90.1,0-164.8,29.3-222.1,87.1    c-128.1,129.4-127.5,360.8-127.5,363.1l0,6H1048.9c-8.7,0-16.3,0.2-22.9,0.4C1020.9,1271,1016.4,1271.1,1012.5,1271.1z"
         id="path103" /></g><g
       id="g109"
       style="fill:#ffcc00"><path
         class="st10"
         d="M402.7,821.5c0,0-55.8,0-82.5,0s-20.9,47.5,0,47.5c20.9,0,68.3,0,68.3,0L402.7,821.5z"
         id="path107"
         style="fill:#ffcc00" /></g><g
       id="g113"><polygon
         class="st11"
         points="209.7,928.3 381.5,930.9 378.4,963.8 209.7,963.8   "
         id="polygon111" /></g><g
       id="g117"><path
         class="st6"
         d="M213.4,1156.1l-7.2-9.4c24.1-18.6,35.6-36.6,34-53.6c-2.3-25.1-32.7-40.9-33-41.1l5.4-10.6    c1.5,0.7,36.5,18.8,39.5,50.4C253.9,1113.3,240.9,1134.9,213.4,1156.1z"
         id="path115" /></g><g
       id="g121"><rect
         x="246"
         y="1093.5"
         class="st6"
         width="79"
         height="11.8"
         id="rect119" /></g><g
       id="g125"><rect
         x="427.9"
         y="924.7"
         transform="matrix(0.6211 -0.7838 0.7838 0.6211 -590.7748 705.1089)"
         class="st6"
         width="11.9"
         height="77.6"
         id="rect123" /></g><g
       id="g129"><path
         class="st6"
         d="M1625.3,780.2h-75.8c-13.8,0-25.2-11.3-25.2-25.2v0c0-13.8,11.3-25.2,25.2-25.2h75.8    c13.8,0,25.2,11.3,25.2,25.2v0C1650.5,768.9,1639.2,780.2,1625.3,780.2z"
         id="path127" /></g><g
       id="g133"><path
         class="st6"
         d="M2256.2,755h-75.8c-13.8,0-25.2-11.3-25.2-25.2v0c0-13.8,11.3-25.2,25.2-25.2h75.8    c13.8,0,25.2,11.3,25.2,25.2v0C2281.4,743.7,2270.1,755,2256.2,755z"
         id="path131" /></g><g
       id="g137"><path
         class="st12"
         d="M2117.4,667.1l154.7,267.1c0,0-24.1,21.4-38.3,35.6l-78.6-63.7l-103.7-158.5l-32.6-68.2v-8.5L2117.4,667.1z"
         id="path135" /></g><g
       id="g141"><path
         class="st13"
         d="M2056.9,667.1l176.9,302.7c-73.9,85.9-92.9,219.2-92.9,219.2h-265.6l-181.9-511.1    C1693.4,677.9,1871.9,673.1,2056.9,667.1z"
         id="path139" /></g><g
       id="g145"><path
         class="st6"
         d="M381.5,931.3H243l0.1-3.1c4.2-150.3,105.3-172.4,106.3-172.6l1.2,5.8c-1,0.2-96.2,21.3-101.5,163.9h132.5    V931.3z"
         id="path143" /></g><g
       id="g149"><rect
         x="209.7"
         y="925.3"
         class="st6"
         width="36.3"
         height="5.9"
         id="rect147" /></g><g
       id="g153"><path
         class="st6"
         d="M410.5,793c-1-0.2-98.8-22.3-171,0l-1.7-5.7c73.7-22.7,173-0.3,174,0L410.5,793z"
         id="path151" /></g><g
       id="g171"><polygon
         class="st2"
         points="644.2,1094.7 619.5,1185 684.2,1185 660.3,1093.5   "
         id="polygon155" /><polygon
         class="st2"
         points="763.5,1161.3 675.2,1192.5 712.1,1245.7 773.6,1174   "
         id="polygon157" /><polygon
         class="st2"
         points="534.5,1156.1 622.7,1187.3 585.9,1240.5 524.3,1168.7   "
         id="polygon159" /><polygon
         class="st2"
         points="555.9,1337.7 599,1254.6 646.5,1298.5 567,1349.5   "
         id="polygon161" /><polygon
         class="st2"
         points="759.1,1337.7 716,1254.6 668.5,1298.5 748,1349.5   "
         id="polygon163" /><g
         id="g167"><path
           class="st14"
           d="M653.5,975.2c-130.3,0-236,118.4-236,264.4c0,146,105.6,264.4,236,264.4s236-118.4,236-264.4     C889.4,1093.6,783.8,975.2,653.5,975.2z M653.5,1378.8c-71.3,0-129.2-62.4-129.2-139.3c0-76.9,57.8-139.3,129.2-139.3     s129.2,62.4,129.2,139.3C782.6,1316.5,724.8,1378.8,653.5,1378.8z"
           id="path165" /></g><circle
         class="st15"
         cx="653.5"
         cy="1239.6"
         r="71"
         id="circle169" /></g><g
       id="g189"><polygon
         class="st2"
         points="2417.6,1094.7 2392.9,1185 2457.6,1185 2433.8,1093.5   "
         id="polygon173" /><polygon
         class="st2"
         points="2536.9,1161.3 2448.7,1192.5 2485.5,1245.7 2547.1,1174   "
         id="polygon175" /><polygon
         class="st2"
         points="2307.9,1156.1 2396.2,1187.3 2359.3,1240.5 2297.8,1168.7   "
         id="polygon177" /><polygon
         class="st2"
         points="2329.3,1337.7 2372.4,1254.6 2420,1298.5 2340.4,1349.5   "
         id="polygon179" /><polygon
         class="st2"
         points="2532.6,1337.7 2489.5,1254.6 2441.9,1298.5 2521.5,1349.5   "
         id="polygon181" /><g
         id="g185"><path
           class="st14"
           d="M2426.9,975.2c-130.3,0-236,118.4-236,264.4c0,146,105.6,264.4,236,264.4s236-118.4,236-264.4     C2662.9,1093.6,2557.3,975.2,2426.9,975.2z M2426.9,1378.8c-71.3,0-129.2-62.4-129.2-139.3c0-76.9,57.8-139.3,129.2-139.3     s129.2,62.4,129.2,139.3C2556.1,1316.5,2498.3,1378.8,2426.9,1378.8z"
           id="path183" /></g><circle
         class="st15"
         cx="2426.9"
         cy="1239.6"
         r="71"
         id="circle187" /></g></g></svg>